<?xml version="1.0" standalone="no"?>
<!DOCTYPE svg PUBLIC "-//W3C//DTD SVG 20010904//EN"
 "http://www.w3.org/TR/2001/REC-SVG-20010904/DTD/svg10.dtd">
<svg version="1.0" xmlns="http://www.w3.org/2000/svg"
 width="260.000000pt" height="260.000000pt" viewBox="0 0 260.000000 260.000000"
 preserveAspectRatio="xMidYMid meet">
<metadata>
Created by potrace 1.14, written by Peter Selinger 2001-2017
</metadata>
<g transform="translate(0.000000,260.000000) scale(0.100000,-0.100000)"
fill="#000000" stroke="none">
<path d="M745 2130 c-105 -52 -120 -203 -27 -269 64 -45 183 -47 240 -4 64 48
91 138 59 199 -45 87 -175 122 -272 74z"/>
<path d="M1477 1740 c-74 -13 -172 -64 -225 -117 -153 -153 -157 -433 -8 -586
85 -88 183 -127 323 -127 92 0 160 20 218 65 l35 26 -6 -48 c-8 -61 -40 -119
-79 -142 -89 -55 -265 -41 -392 30 l-53 29 -55 -110 -55 -110 32 -20 c94 -58
237 -90 396 -90 283 1 436 98 499 317 13 48 17 127 20 466 l5 407 -151 0 -151
0 0 -46 0 -46 -41 36 c-23 19 -63 42 -88 50 -60 19 -164 27 -224 16z m238
-259 c95 -44 129 -133 86 -228 -60 -131 -269 -132 -336 -2 -20 37 -19 113 1
155 39 82 157 117 249 75z"/>
<path d="M688 1286 c-3 -435 -3 -445 -24 -473 -18 -24 -28 -28 -70 -28 -27 0
-58 4 -70 8 -19 7 -24 -1 -58 -98 -21 -58 -35 -109 -31 -115 3 -5 31 -17 62
-26 79 -23 250 -15 315 14 56 25 119 86 148 141 33 67 40 158 40 599 l0 422
-155 0 -154 0 -3 -444z"/>
</g>
</svg>
